<?xml version="1.0" standalone="no"?>
<!DOCTYPE svg PUBLIC "-//W3C//DTD SVG 20010904//EN"
 "http://www.w3.org/TR/2001/REC-SVG-20010904/DTD/svg10.dtd">
<svg version="1.0" xmlns="http://www.w3.org/2000/svg"
 width="64.000000pt" height="64.000000pt" viewBox="0 0 64.000000 64.000000"
 preserveAspectRatio="xMidYMid meet">

<g transform="translate(0.000000,64.000000) scale(0.100000,-0.100000)"
fill="#000000" stroke="none">
<path d="M136 562 c-13 -22 -12 -384 2 -435 6 -21 7 -37 1 -37 -5 0 -9 -4 -9
-10 0 -6 70 -10 190 -10 120 0 190 4 190 10 0 6 -4 10 -9 10 -5 0 -4 16 2 38
10 33 11 117 4 372 -2 61 -4 65 -26 68 -34 5 -50 -20 -44 -69 6 -38 5 -39 -25
-39 -29 0 -31 2 -34 43 l-3 42 -55 0 -55 0 -3 -42 c-3 -41 -5 -43 -34 -43 -30
0 -31 0 -25 43 4 28 2 48 -5 55 -13 13 -54 16 -62 4z m50 -17 c9 -23 -6 -87
-19 -82 -14 4 -30 64 -23 83 7 19 35 18 42 -1z m308 0 c7 -19 -4 -74 -16 -81
-6 -4 -14 0 -19 7 -10 16 -12 73 -2 82 11 12 31 8 37 -8z m-134 -50 c0 -34 -1
-35 -40 -35 -39 0 -40 1 -40 35 0 34 1 35 40 35 39 0 40 -1 40 -35z m-179 -87
l2 -43 6 40 6 40 125 0 125 0 6 -40 6 -40 2 43 c1 54 26 58 35 5 10 -62 7
-231 -5 -279 l-11 -44 -158 0 -158 0 -11 44 c-12 48 -15 217 -5 279 9 53 34
49 35 -5z"/>
<path d="M230 400 c0 -6 37 -10 90 -10 53 0 90 4 90 10 0 6 -37 10 -90 10 -53
0 -90 -4 -90 -10z"/>
</g>
</svg>
