<?xml version="1.0" encoding="UTF-8"?>
<!DOCTYPE svg PUBLIC "-//W3C//DTD SVG 1.1//EN" "http://www.w3.org/Graphics/SVG/1.1/DTD/svg11.dtd">
<svg xmlns="http://www.w3.org/2000/svg" version="1.1" width="64px" height="64px" style="shape-rendering:geometricPrecision; text-rendering:geometricPrecision; image-rendering:optimizeQuality; fill-rule:evenodd; clip-rule:evenodd" xmlns:xlink="http://www.w3.org/1999/xlink">
<g><path style="opacity:0.89" fill="#329259" d="M 15.5,4.5 C 18.0794,4.85243 19.9127,6.18576 21,8.5C 21.2532,11.2004 21.2532,13.867 21,16.5C 22,15.1667 23,15.1667 24,16.5C 24.2178,13.5738 24.7178,10.7405 25.5,8C 29.5,7.33333 33.5,7.33333 37.5,8C 38.2822,10.7405 38.7822,13.5738 39,16.5C 40,15.1667 41,15.1667 42,16.5C 42.2917,14.6739 42.125,12.8405 41.5,11C 44.5206,3.30582 48.1873,2.97249 52.5,10C 51.4723,18.5978 51.4723,27.2645 52.5,36C 52.5341,41.4274 51.8674,46.7608 50.5,52C 51.2335,53.7659 51.5668,55.5992 51.5,57.5C 38.1667,57.5 24.8333,57.5 11.5,57.5C 11.4332,55.5992 11.7665,53.7659 12.5,52C 11.1326,46.7608 10.4659,41.4274 10.5,36C 11.5277,27.2645 11.5277,18.5978 10.5,10C 11.6924,7.64512 13.359,5.81179 15.5,4.5 Z M 15.5,8.5 C 16.8799,8.96227 17.5466,9.96227 17.5,11.5C 17.1012,13.1966 16.6012,14.8632 16,16.5C 15.0584,13.7288 14.8917,11.0621 15.5,8.5 Z M 46.5,8.5 C 47.4778,8.81103 48.1445,9.4777 48.5,10.5C 47.8108,12.444 47.3108,14.444 47,16.5C 45.487,13.8363 45.3204,11.1696 46.5,8.5 Z M 28.5,11.5 C 30.5,11.5 32.5,11.5 34.5,11.5C 34.6602,13.1992 34.4935,14.8659 34,16.5C 32.3333,15.1667 30.6667,15.1667 29,16.5C 28.5065,14.8659 28.3398,13.1992 28.5,11.5 Z M 20.5,22.5 C 20.5,21.5 20.5,20.5 20.5,19.5C 27.8635,19.1694 35.1968,19.5027 42.5,20.5C 43.3742,22.7466 43.7076,25.0799 43.5,27.5C 44.5,27.5 45.5,27.5 46.5,27.5C 46.3359,24.8127 46.5026,22.146 47,19.5C 49.1625,30.5611 48.9958,41.5611 46.5,52.5C 36.5222,53.4985 26.5222,53.8319 16.5,53.5C 14.0386,42.2196 13.8719,30.8863 16,19.5C 16.4974,22.146 16.6641,24.8127 16.5,27.5C 17.5,27.5 18.5,27.5 19.5,27.5C 19.2155,25.5853 19.5489,23.9187 20.5,22.5 Z"/></g>
<g><path style="opacity:0.476" fill="#319359" d="M 20.5,22.5 C 27.4197,21.3722 34.4197,21.2055 41.5,22C 42.8333,23 42.8333,24 41.5,25C 34.8333,25.6667 28.1667,25.6667 21.5,25C 20.7476,24.3292 20.4142,23.4959 20.5,22.5 Z"/></g>
</svg>
